<svg width="80" height="81" viewBox="0 0 80 81" fill="none" xmlns="http://www.w3.org/2000/svg">
<path d="M73.6 0.5H6.4C2.86538 0.5 0 3.36538 0 6.9V74.1C0 77.6346 2.86538 80.5 6.4 80.5H73.6C77.1346 80.5 80 77.6346 80 74.1V6.9C80 3.36538 77.1346 0.5 73.6 0.5Z" fill="#356AE6"/>
<path d="M56.0037 43.6708C57.3192 42.7748 57.7589 41.6796 57.7589 40.6842V40.186C57.7589 39.0908 57.1 38.1946 56.0037 37.4978C55.1264 36.9004 22.5664 16.29 22.5664 16.29V20.6711C22.5664 22.1644 23.4445 22.6626 24.6493 23.4591C26.2939 24.554 51.7293 40.5834 51.7293 40.5834C51.7293 40.5834 25.9661 56.8138 24.4301 57.7098C22.7856 58.7055 22.6771 59.3034 22.6771 60.5972V64.6794C22.4568 64.7788 54.4699 44.6666 56.0037 43.6708Z" fill="white"/>
<path d="M22.5664 30.9161V33.8091C22.5664 33.8091 32.4491 39.9806 34.3824 41.1379C35.9936 42.1022 37.3901 42.0059 39.0013 40.9451C40.0755 40.2702 41.0424 39.6918 41.0424 39.6918C41.0424 39.6918 26.6483 30.7233 25.1445 29.8555C23.9629 29.0841 22.5664 29.5673 22.5664 30.9161Z" fill="white"/>
</svg>
