<svg width="80" height="80" viewBox="0 0 80 80" fill="none" xmlns="http://www.w3.org/2000/svg">
<path d="M64.3413 42.6221C64.3413 39.2914 66.4939 36.949 69.5558 36.949C72.6177 36.949 74.8047 39.2901 74.8047 42.6221C74.8047 45.9542 72.6182 48.1627 69.5558 48.1627C66.4934 48.1627 64.3413 45.8533 64.3413 42.6221ZM61.145 42.6221C61.145 47.5366 64.6439 51 69.5553 51C74.4668 51 78 47.5366 78 42.6221C78 37.7077 74.5011 34.113 69.5553 34.113C64.6096 34.113 61.145 37.6427 61.145 42.6221ZM44.8276 34.3107L51.4222 50.8014H54.5179L61.1121 34.3107H57.7814L53.0039 47.0419H52.9363L48.1587 34.3107H44.8276ZM32.0091 42.0278C32.2106 38.993 34.2631 36.949 37.0558 36.949C39.4777 36.949 41.2948 38.4664 41.5641 40.7426H35.9788C33.9939 40.7426 32.9169 40.9734 32.1105 42.0293H32.0091V42.0284V42.0278ZM28.8132 42.5226C28.8132 47.4371 32.346 50.9986 37.2236 50.9986C40.5209 50.9986 43.4136 49.3498 44.6584 46.7434L41.9673 45.4235C41.0255 47.1386 39.2085 48.1613 37.2236 48.1613C34.8341 48.1613 32.6815 46.3799 32.6815 44.6647C32.6815 43.7747 33.2871 43.3781 34.1617 43.3781H44.8262V42.4881C44.8262 37.5404 41.5965 34.1103 36.9543 34.1103C32.3121 34.1103 28.8127 37.6399 28.8127 42.5213M19.6623 50.7996H22.6904V40.6758C22.6904 38.4991 24.069 36.9485 25.9877 36.9485C26.7955 36.9485 27.6356 37.2125 28.0403 37.5746C28.3433 36.7827 28.8142 35.9921 29.5204 35.2002C28.7126 34.541 27.334 34.1112 25.9877 34.1112C22.2872 34.1112 19.6623 36.8158 19.6623 40.6744V50.8005V50.7996ZM5.02807 39.8848V31.8359H10.0072C11.6889 31.8359 12.7998 32.7923 12.7998 34.2434C12.7998 35.8921 11.3535 37.1457 8.39305 38.102C6.37434 38.7281 5.46648 39.256 5.12957 39.8834L5.02807 39.8844V39.8848ZM5.02807 47.9655V44.6017C5.02807 43.1174 6.30668 41.6663 8.08996 41.1051C9.67167 40.5772 10.9827 40.0493 12.0936 39.4896C13.5737 40.3478 14.4816 41.8307 14.4816 43.3813C14.4816 46.0196 11.9244 47.9655 8.45931 47.9655H5.02807ZM2 50.8014H8.72856C13.843 50.8014 17.6774 47.6684 17.6774 43.5126C17.6774 41.2365 16.5003 39.1924 14.4139 37.8726C15.491 36.8167 15.9956 35.5964 15.9956 34.1121C15.9956 31.0454 13.7415 29 10.3441 29H2V50.8014Z" fill="#0B996E"/>
</svg>
