<svg width="80" height="81" viewBox="0 0 80 81" fill="none" xmlns="http://www.w3.org/2000/svg">
<path fill-rule="evenodd" clip-rule="evenodd" d="M50.7785 33.8513C51.4377 35.8284 53.283 37.0148 55.3918 37.0148C55.919 37.0148 56.4462 36.8831 56.9737 36.7511C59.4779 35.8284 60.7961 33.0604 59.8734 30.5561C58.2915 26.2064 54.9963 22.7794 50.383 20.6705C48.0105 19.616 45.1107 20.6705 43.9243 23.043C42.8699 25.4156 43.9243 28.3153 46.2971 29.5017C48.6697 30.5561 50.1195 32.006 50.7785 33.8513Z" fill="#FF9E1A"/>
<path fill-rule="evenodd" clip-rule="evenodd" d="M49.1969 3.53525C46.5606 3.00801 44.0564 4.72154 43.5289 7.35773C43.0017 9.99389 44.7153 12.4983 47.3516 13.0255C58.2916 15.1344 65.6729 22.5158 67.5182 33.1924C67.9137 35.5649 70.0228 37.1465 72.2633 37.1465C72.527 37.1465 72.7908 37.1465 73.0542 37.0148C75.6905 36.4876 77.4041 33.9831 77.0086 31.4788C74.5041 16.9798 64.0913 6.43506 49.1969 3.53525Z" fill="#FF9E1A"/>
<path fill-rule="evenodd" clip-rule="evenodd" d="M36.9399 51.7775C32.59 51.7775 28.8993 48.2186 28.8993 43.737C28.8993 39.3874 32.4583 35.6967 36.9399 35.6967C39.5759 35.6967 41.8167 33.5879 41.8167 30.8199C41.8167 28.0519 39.7079 25.9429 36.9399 25.9429C27.186 25.9429 19.2773 33.8514 19.2773 43.6053C19.2773 53.3591 27.186 61.2677 36.9399 61.2677C46.6937 61.2677 54.6023 53.3591 54.6023 43.6053C54.6023 40.969 52.4932 38.7285 49.7252 38.7285C47.0889 38.7285 44.8484 40.8373 44.8484 43.6053C44.9801 48.2186 41.2895 51.7775 36.9399 51.7775Z" fill="#1856ED"/>
<path fill-rule="evenodd" clip-rule="evenodd" d="M66.0701 38.992C63.4339 38.992 61.1933 41.1011 61.1933 43.8691C61.1933 57.3136 50.2531 68.2536 36.8085 68.2536C23.364 68.2536 12.4239 57.3136 12.4239 43.8691C12.4239 30.4246 23.364 19.4843 36.8085 19.4843C39.4448 19.4843 41.6856 17.3754 41.6856 14.6074C41.6856 11.9712 39.5765 9.73047 36.8085 9.73047C18.2235 9.73047 2.93359 25.0203 2.93359 43.7371C2.93359 62.4542 18.2235 77.744 36.9403 77.744C55.6573 77.744 70.9472 62.4542 70.9472 43.7371C70.9472 41.1011 68.8381 38.992 66.0701 38.992Z" fill="#1856ED"/>
</svg>
