<svg width="80" height="81" viewBox="0 0 80 81" fill="none" xmlns="http://www.w3.org/2000/svg">
<g clip-path="url(#clip0_7202_74391)">
<path d="M6.95844 62.1H17.5984V35.4551L2.39844 23.7V57.3979C2.39844 59.9997 4.44284 62.1 6.95844 62.1Z" fill="#4285F4"/>
<path d="M55.1992 62.1H65.8392C68.3624 62.1 70.3992 59.9919 70.3992 57.3979V23.7L55.1992 35.4551" fill="#34A853"/>
<path d="M55.1992 15.5606V35.6999L70.3992 24.0811V17.8844C70.3992 12.1369 63.962 8.86043 59.4552 12.3073" fill="#FBBC04"/>
<path d="M17.5977 35.5545V15.7L36.3977 29.4454L55.1977 15.7V35.5545L36.3977 49.2999" fill="#EA4335"/>
<path d="M2.39844 17.8844V24.0811L17.5984 35.6999V15.5606L13.3424 12.3073C8.82804 8.86043 2.39844 12.1369 2.39844 17.8844Z" fill="#C5221F"/>
</g>
<defs>
<clipPath id="clip0_7202_74391">
<rect width="80" height="80" fill="white" transform="translate(0 0.5)"/>
</clipPath>
</defs>
</svg>
