<svg width="80" height="81" viewBox="0 0 80 81" fill="none" xmlns="http://www.w3.org/2000/svg">
<path fill-rule="evenodd" clip-rule="evenodd" d="M53.1882 56.3829C51.2764 56.4111 49.3995 55.87 47.7961 54.8284C46.1928 53.7869 44.9357 52.2919 44.1846 50.5338C43.4336 48.7757 43.2227 46.8339 43.5787 44.9556C43.9347 43.0772 44.8415 41.3473 46.1838 39.9858C47.526 38.6243 49.2431 37.6929 51.1164 37.3101C52.9896 36.9272 54.9345 37.1103 56.7034 37.8359C58.4723 38.5616 59.9854 39.797 61.0499 41.3851C62.1145 42.9731 62.6825 44.8419 62.6817 46.7536C62.6806 49.2835 61.6843 51.7114 59.9081 53.513C58.1318 55.3147 55.7182 56.3455 53.1882 56.3829ZM56.0274 28.2024V19.6309C57.1509 19.0959 58.0994 18.2531 58.763 17.2006C59.4266 16.1481 59.7779 14.9289 59.7762 13.6847V13.4875C59.7766 11.7573 59.095 10.0966 57.8791 8.86546C56.6633 7.63428 55.0112 6.93178 53.2809 6.91019H53.0889C51.3587 6.93184 49.7068 7.63427 48.4911 8.86528C47.2753 10.0963 46.5936 11.7567 46.5938 13.4868V13.684C46.5921 14.9285 46.9436 16.1479 47.6075 17.2006C48.2714 18.2533 49.2204 19.0961 50.3442 19.6309V28.2024C47.1249 28.7034 44.0975 30.0541 41.5744 32.1153L18.3938 13.8273C18.5575 13.2211 18.6461 12.5972 18.6578 11.9694C18.6672 10.9988 18.4852 10.0357 18.1221 9.1354C17.7591 8.23508 17.2221 7.41512 16.542 6.72241C15.8618 6.02969 15.0518 5.47779 14.1582 5.09826C13.2646 4.71872 12.305 4.519 11.3342 4.5105C9.37695 4.5235 7.50499 5.31304 6.12975 6.70555C4.75452 8.09807 3.98856 9.9796 4.00025 11.9366C3.9842 13.8935 4.74596 15.7767 6.11809 17.1723C7.49022 18.5679 9.36042 19.3616 11.3176 19.379C12.5888 19.3715 13.8353 19.0271 14.9298 18.3807L37.7423 36.3894C35.689 39.543 34.6193 43.2355 34.6691 46.9982C34.7189 50.7609 35.8859 54.4239 38.0219 57.522L31.0883 64.5644C30.5324 64.3828 29.9521 64.2867 29.3673 64.2793C28.052 64.2411 26.7586 64.6216 25.6736 65.366C24.5886 66.1103 23.768 67.18 23.3304 68.4207C22.8927 69.6615 22.8605 71.0092 23.2384 72.2694C23.6163 73.5297 24.3848 74.6373 25.433 75.4326C26.4812 76.2279 27.755 76.6698 29.0706 76.6944C30.3862 76.7191 31.6757 76.3253 32.753 75.5698C33.8303 74.8144 34.6397 73.7363 35.0646 72.4911C35.4895 71.2459 35.5078 69.898 35.117 68.6417L41.9793 61.6826C45.1891 64.1729 49.1374 65.5228 53.2002 65.5187C63.4281 65.5187 71.7211 57.1061 71.7211 46.7318C71.7386 42.2812 70.1678 37.9702 67.2912 34.5738C64.4146 31.1774 60.4207 28.9182 56.0274 28.2024Z" fill="#FF7A59"/>
</svg>
