<svg width="80" height="80" viewBox="0 0 80 80" fill="none" xmlns="http://www.w3.org/2000/svg">
<path d="M60.0755 38.1824C60.7165 38.1042 61.3656 38.1042 62.0066 38.1824C62.3528 37.4329 62.413 36.1415 62.1014 34.7351C61.6379 32.645 61.0093 31.3799 59.7141 31.5767C58.4188 31.7735 58.3701 33.2878 58.8335 35.3784C59.0267 36.387 59.4505 37.3438 60.0755 38.1824Z" fill="black"/>
<path d="M50.2767 39.4489C51.2044 39.8321 51.7739 40.0864 51.9973 39.8645C52.1409 39.7257 52.0977 39.4614 51.8764 39.1205C51.2794 38.3098 50.4471 37.6783 49.4793 37.3015C48.4429 36.8975 47.3137 36.7514 46.2001 36.8775C45.0865 37.0035 44.0261 37.3973 43.1207 38.0211C42.5001 38.4494 41.9117 39.043 41.9964 39.4034C42.0231 39.5199 42.1163 39.6075 42.3339 39.6361C42.8456 39.6913 44.6333 38.8397 46.6925 38.7209C47.9324 38.6837 49.1631 38.9336 50.2767 39.4489Z" fill="black"/>
<path d="M48.2969 40.1665C47.0893 40.3462 46.4226 40.7215 45.9954 41.0701C45.6302 41.3713 45.4044 41.7029 45.4065 41.9368C45.4047 41.9757 45.4121 42.0145 45.4281 42.0504C45.4441 42.0863 45.4683 42.1184 45.4989 42.1444C45.5534 42.1907 45.6243 42.2161 45.6976 42.2155C46.0013 42.1735 46.2983 42.0959 46.5816 41.9845C47.8215 41.5444 49.161 41.4133 50.4703 41.604C51.0776 41.6683 51.3642 41.7044 51.4974 41.5076C51.5315 41.4508 51.5464 41.3856 51.5403 41.3206C51.5341 41.2556 51.5072 41.1939 51.463 41.1437C51.1799 40.7114 49.9605 39.9803 48.2969 40.1665Z" fill="black"/>
<path d="M56.671 43.6953C57.4911 44.075 58.3942 43.9262 58.688 43.3624C58.9818 42.7987 58.5549 42.0339 57.7353 41.6541C56.9157 41.2743 56.012 41.4231 55.718 41.9869C55.4239 42.5507 55.8506 43.3155 56.671 43.6953Z" fill="black"/>
<path d="M61.5197 39.5157C60.8539 39.5054 60.3009 40.195 60.2855 41.0559C60.27 41.9169 60.7977 42.6237 61.4638 42.634C62.13 42.6443 62.6829 41.9563 62.6986 41.0943C62.7143 40.2324 62.1864 39.5265 61.5197 39.5157Z" fill="black"/>
<path d="M22.9185 54.0277C22.7531 53.8319 22.4806 53.8919 22.217 53.9497C22.0144 54.0018 21.8056 54.0296 21.5956 54.0323C21.373 54.0373 21.1525 53.9903 20.9539 53.8954C20.7553 53.8005 20.5847 53.6608 20.4575 53.4886C20.1538 53.0493 20.1714 52.3944 20.5065 51.6447C20.5517 51.5443 20.6047 51.4313 20.6628 51.3086C21.1971 50.1791 22.0915 48.288 21.0874 46.4857C20.3312 45.1303 19.0988 44.2852 17.6168 44.1077C16.9162 44.0235 16.2043 44.0974 15.5399 44.3232C14.8755 44.549 14.2774 44.9202 13.795 45.4064C12.321 46.9391 12.0904 49.0242 12.3759 49.7611C12.48 50.0307 12.6438 50.1055 12.7624 50.1208C13.013 50.1527 13.3837 49.9805 13.6163 49.3929C13.6331 49.3505 13.6552 49.2847 13.6829 49.2014C13.8248 48.7268 14.0307 48.2713 14.2955 47.846C14.483 47.5691 14.7272 47.3303 15.014 47.1437C15.3007 46.957 15.6241 46.8262 15.9652 46.7588C16.3135 46.6877 16.6734 46.6828 17.0237 46.7444C17.3741 46.8061 17.7078 46.933 18.0054 47.1178C18.5073 47.4296 18.8797 47.895 19.0599 48.4355C19.2401 48.9759 19.217 49.5584 18.9947 50.0847C18.7667 50.6728 18.3964 51.798 18.4782 52.7225C18.6431 54.5935 19.8632 55.3448 20.9614 55.4248C22.0284 55.4627 22.7726 54.8977 22.9625 54.4858C23.0056 54.4144 23.0245 54.3322 23.0166 54.2503C23.0088 54.1684 22.9745 54.0908 22.9185 54.0277Z" fill="black"/>
<path d="M76.8741 50.6756C76.8371 50.5526 76.5966 49.7232 76.2658 48.7241C76.0763 48.1449 75.8516 47.5765 75.5927 47.0217C76.9189 45.1505 76.9426 43.4767 76.7668 42.5283C76.5677 41.3067 75.9521 40.1793 75.0129 39.3167C73.9667 38.2817 71.8271 37.2216 68.8205 36.4261C68.4764 36.335 67.3426 36.0418 67.2427 36.0129C67.2349 35.9517 67.1598 32.5074 67.0914 31.0291C67.0622 29.5465 66.828 28.0738 66.3949 26.6482C65.7402 24.4238 64.6 22.4771 63.176 21.232C67.105 17.3934 69.5578 13.1651 69.5519 9.53726C69.5407 2.561 60.4502 0.450128 49.2476 4.82224C49.2359 4.82676 46.8912 5.76384 46.8741 5.77212C46.8637 5.76233 42.583 1.80391 42.5185 1.75119C29.7463 -8.74846 -10.188 33.086 2.57969 43.2458L5.36997 45.4736C4.61695 47.378 4.35113 49.4229 4.59409 51.4422C4.89214 54.2384 6.42258 56.9189 8.9031 58.9901C11.2579 60.9566 14.3539 62.201 17.3586 62.1987C22.3268 72.9893 33.6792 79.6096 46.9903 79.9821C61.2679 80.3817 73.2539 74.0674 78.2762 62.7246C78.6049 61.9283 79.9984 58.3417 79.9984 55.1755C79.9997 51.9932 78.09 50.6756 76.8741 50.6756ZM18.456 59.1673C18.0192 59.2362 17.5763 59.2655 17.1336 59.2547C12.8214 59.1455 8.16291 55.4865 7.7 51.1465C7.18834 46.3499 9.78871 42.6588 14.3931 41.7833C15.029 41.6649 15.6781 41.6213 16.3255 41.6535C18.9053 41.7865 22.7064 43.6537 23.5752 48.9498C24.3442 53.6415 23.1227 58.4172 18.456 59.1673ZM13.6401 38.9153C10.8415 39.4052 8.35427 40.9007 6.70332 43.0861C5.77962 42.3601 4.0598 40.9551 3.75589 40.4079C1.29003 35.9944 6.44762 27.4136 10.0505 22.568C18.9551 10.5921 32.9009 1.52778 39.357 3.172C40.4064 3.45189 43.882 7.25042 43.882 7.25042C39.5052 9.61336 35.3447 12.3154 31.4434 15.3287C23.3808 21.1801 17.2894 29.6863 13.6401 38.9153ZM58.9049 57.374C58.9526 57.3535 58.9925 57.3195 59.0189 57.2768C59.0454 57.2341 59.0572 57.1848 59.0527 57.1355C59.046 57.0764 59.0148 57.0223 58.966 56.9847C58.9172 56.9471 58.8547 56.9291 58.7919 56.9347C58.7919 56.9347 52.0363 57.8773 45.6545 55.6753C46.3494 53.5461 48.1979 54.315 50.9914 54.5273C55.3338 54.7696 59.6886 54.326 63.8758 53.2147C66.7662 52.433 70.5624 50.8917 73.5107 48.6983C74.1467 50.0821 74.5986 51.5348 74.8563 53.0232C75.3429 52.9557 75.8396 53.0413 76.2695 53.2667C76.8773 53.6181 77.3235 54.3521 77.019 56.2474C76.399 59.7868 74.8019 62.6611 72.1182 65.3041C70.4417 67.0138 68.4465 68.4189 66.2319 69.4498C64.9986 70.0606 63.7129 70.5724 62.3885 70.9798C52.2722 74.0938 41.9174 70.6703 38.5789 63.3185C38.3082 62.7571 38.0845 62.1765 37.9099 61.5822C36.4873 56.7374 37.6952 50.9254 41.4702 47.2667V47.2652C41.7372 47.048 41.9055 46.7425 41.9403 46.4117C41.9073 46.1138 41.7807 45.832 41.5767 45.6024C40.2559 43.7968 35.6813 40.7207 36.5994 34.7666C37.2589 30.4899 41.2281 27.4773 44.9284 27.6558C45.2406 27.6711 45.5541 27.6894 45.866 27.706C47.4697 27.7954 48.8686 27.9892 50.1888 28.0414C52.3979 28.131 54.3849 27.8288 56.7379 25.9807C57.5321 25.3572 58.1684 24.8169 59.2453 24.645C59.5574 24.5681 59.8805 24.5383 60.2025 24.5566C60.777 24.5777 61.3346 24.7456 61.8155 25.0424C63.7021 26.2254 63.9695 29.0912 64.0675 31.1872C64.1229 32.3841 64.2766 35.2789 64.3288 36.1098C64.4489 38.0104 64.979 38.2782 66.051 38.6111C66.654 38.7981 67.2139 38.9374 68.0388 39.156C70.5363 39.8167 72.0165 40.4865 72.95 41.3482C73.4324 41.7929 73.7468 42.3743 73.8452 43.0035C74.1398 45.028 72.1776 47.529 66.983 49.8013C61.3047 52.2864 54.4161 52.914 49.6567 52.4147C49.2918 52.3763 47.9939 52.2375 47.9893 52.237C44.1821 51.7538 42.0103 56.3912 44.2951 59.5669C45.7677 61.6143 49.7789 62.9473 53.7918 62.9475C62.9933 62.9488 70.0657 59.2456 72.6964 56.0471C72.7719 55.9565 72.8424 55.8622 72.9074 55.7646C73.0366 55.5806 72.93 55.4795 72.7686 55.5837C70.6195 56.9696 61.0722 62.4723 50.8603 60.817C50.0511 60.6825 49.2565 60.479 48.4863 60.2091C47.5863 59.8792 45.7025 59.0626 45.4734 57.2407C53.7172 59.6448 58.9049 57.374 58.9049 57.374ZM45.8516 55.922V55.9241L45.8535 55.9276L45.8516 55.922ZM30.0859 22.5193C33.2512 19.0717 37.1481 16.0742 40.6389 14.3913C40.665 14.3787 40.6948 14.3742 40.7238 14.3787C40.7528 14.3831 40.7796 14.3962 40.8001 14.4161C40.8207 14.4359 40.8339 14.4614 40.8379 14.4889C40.8419 14.5163 40.8365 14.5442 40.8224 14.5686C40.3954 15.2778 40.066 16.0353 39.8422 16.823C39.836 16.8493 39.8382 16.8768 39.8487 16.9019C39.8591 16.927 39.8774 16.9485 39.901 16.9637C39.9246 16.9789 39.9526 16.9871 39.9812 16.9872C40.0098 16.9872 40.0377 16.9792 40.0615 16.9641C42.2335 15.5689 46.0112 14.074 49.3248 13.8818C49.3559 13.8801 49.3866 13.8879 49.4127 13.9039C49.4387 13.9199 49.4587 13.9433 49.4696 13.9707C49.4805 13.9981 49.4819 14.0281 49.4735 14.0563C49.4651 14.0845 49.4473 14.1095 49.4228 14.1275C48.8749 14.5246 48.3849 14.9879 47.9654 15.5056C47.9498 15.5253 47.9403 15.5485 47.9379 15.5729C47.9355 15.5973 47.9403 15.6218 47.9517 15.6438C47.9631 15.6658 47.9808 15.6843 48.0027 15.6975C48.0246 15.7106 48.0499 15.7178 48.0759 15.7183C50.403 15.7336 53.6831 16.5012 55.8211 17.6311C55.9657 17.7079 55.8626 17.9717 55.701 17.9368C52.4661 17.238 47.1711 16.7068 41.6707 17.9725C36.7603 19.1021 33.0125 20.844 30.2782 22.7181C30.2496 22.7378 30.2143 22.7468 30.1791 22.7435C30.1439 22.7402 30.1112 22.7247 30.0874 22.7C30.0635 22.6754 30.0502 22.6433 30.0499 22.6099C30.0496 22.5766 30.0624 22.5443 30.0859 22.5193Z" fill="black"/>
</svg>
