<svg fill="none" xmlns="http://www.w3.org/2000/svg" viewBox="0 0 802 178">
  <path d="M490.62 136.2c-9.39 0-17.75-1.97-25.08-5.9a45.4 45.4 0 0 1-17.1-16.48c-4.07-7.07-6.1-15.16-6.1-24.23 0-9.08 1.92-17.28 5.76-24.23a42.57 42.57 0 0 1 16.26-16.48c6.9-4.05 14.78-6.08 23.72-6.08 8.93 0 16.37 1.98 22.7 5.9a36.52 36.52 0 0 1 14.39 15.98c3.4 6.73 5.09 14.53 5.09 23.38a7.2 7.2 0 0 1-2.2 5.37 8.06 8.06 0 0 1-5.6 2.04h-45.64a6.73 6.73 0 1 1 0-13.46h45.13l-6.93 4.7a35.28 35.28 0 0 0-3.4-14.99 25.4 25.4 0 0 0-9.15-10.6c-3.96-2.6-8.74-3.87-14.4-3.87-6.44 0-11.98 1.38-16.59 4.2a27.16 27.16 0 0 0-10.35 11.63c-2.37 4.8-3.56 10.32-3.56 16.48s1.42 11.68 4.24 16.48a31 31 0 0 0 11.7 11.45c4.95 2.8 10.67 4.21 17.11 4.21 3.5 0 7.07-.62 10.66-1.83a33.83 33.83 0 0 0 8.96-4.56 9.16 9.16 0 0 1 5.43-1.83 7.32 7.32 0 0 1 5.26 1.66c1.92 1.67 2.9 3.54 3.02 5.55.12 2.03-.79 3.76-2.71 5.2-3.85 3.02-8.62 5.48-14.4 7.4a51.19 51.19 0 0 1-16.25 2.86l.03.06Zm174.35-.95c-7.66 0-14.5-1.64-20.52-4.92a37.26 37.26 0 0 1-13.94-13.94c-3.28-6.02-4.92-12.86-4.92-20.53 0-2.51.85-4.55 2.49-6.07a8.27 8.27 0 0 1 6.07-2.46c2.4 0 4.56.82 6.08 2.46a7.94 7.94 0 0 1 2.49 6.07c0 4.7.9 8.85 2.77 12.47a22.75 22.75 0 0 0 7.89 8.54 22.68 22.68 0 0 0 11.67 2.94c4.42 0 8.26-.96 11.68-2.94 3.4-2.1 6.02-4.92 7.89-8.54 1.98-3.62 2.94-7.77 2.94-12.47V31.9c0-2.52.79-4.56 2.32-6.08a8.27 8.27 0 0 1 6.08-2.46c2.4 0 4.6.82 6.24 2.46a7.92 7.92 0 0 1 2.46 6.08v63.97c0 7.67-1.7 14.5-5.09 20.53a37.26 37.26 0 0 1-13.93 13.94c-5.91 3.28-12.75 4.92-20.53 4.92h-.14Z" fill="#fff"/>
  <path fill-rule="evenodd" clip-rule="evenodd" d="M248.2 83.6c-.12.48-.2.96-.29 1.44a31.13 31.13 0 0 0 .51 12.04c0 .17.09.34.14.54a30.53 30.53 0 0 0 9.5 15.44 30.74 30.74 0 0 0 13.71 6.95c2.49.54 5 .76 7.55.68h10.18a7.95 7.95 0 0 1 0 15.89h-9.87a45.9 45.9 0 0 1-11.25-1.08 46.39 46.39 0 0 1-27.96-18.43 47.22 47.22 0 0 1-8.68-26.2 44.6 44.6 0 0 1 .6-8.3l.25-1.4a47.08 47.08 0 0 1 9.04-20 46.8 46.8 0 0 1 41.5-17.75 47.2 47.2 0 0 1 15 4.1h.05a46.83 46.83 0 0 1 26.97 43.31v37.75a7.95 7.95 0 0 1-15.89 0V90.95a30.74 30.74 0 0 0-22.25-30.7 30.35 30.35 0 0 0-16.06-.26 30.82 30.82 0 0 0-22.14 21.74c-.16.6-.3 1.22-.45 1.81h-.17v.06Z" fill="#fff"/>
  <path d="M560.08 132c5.32 1.83 11.54 2.77 18.63 2.77 7.1 0 12.92-.97 18.24-2.94 5.31-2.1 9.55-5.04 12.7-8.85a20.77 20.77 0 0 0 4.71-13.63 20.7 20.7 0 0 0-3.33-11.2c-2.24-3.47-5.49-6.55-9.78-9.21-4.3-2.77-9.62-4.84-15.92-6.22l-9.61-2.2c-5.35-1.25-9.39-2.83-12.13-4.7-2.63-2-3.85-4.04-3.85-6.1a9.89 9.89 0 0 1 4.78-8.83c3.23-2.2 7.72-3.33 13.57-3.33 5.46 0 10.07.85 13.86 2.51 2.14.96 3.75 2.01 5.14 3.57 2.23 2.51 5.37 4.58 8.88 4.1a7.54 7.54 0 0 0 5.34-3.31 5.64 5.64 0 0 0 .11-6 19.44 19.44 0 0 0-4.55-5.5 36.5 36.5 0 0 0-12.07-6.43 50.64 50.64 0 0 0-15.55-2.23c-11.84 0-20.9 2.29-27.03 6.93-6.02 4.55-9.04 10.97-9.04 19.16 0 5.4 2.51 10.27 7.46 14.56 4.95 4.16 11.82 7.27 20.58 9.33l9.22 2.24c5.88 1.35 10.23 3.1 13.09 5.2 2.97 2.1 4.4 4.78 4.4 8.14 0 3.65-1.91 6.53-5.87 8.62-4.02 2.01-9 3.03-14.99 3.03a29 29 0 0 1-14.19-3.54 25.73 25.73 0 0 1-6.73-5.2c-2.12-2.32-5.14-3.98-8.37-3.53a7.82 7.82 0 0 0-5.5 3.59 6.02 6.02 0 0 0-.12 6.3 20.46 20.46 0 0 0 4.41 5.29 43.04 43.04 0 0 0 13.43 7.6h.08Z" fill="#fff" stroke="#fff" stroke-width=".96"/>
  <path d="M760.08 136.2c-8.4 0-15.7-1.15-21.97-3.44a50.41 50.41 0 0 1-15.78-9.47 24.75 24.75 0 0 1-5.12-6.5c-2.68-4.93 1-10.75 6.28-11.57 3.6-.54 7.01 1.42 9.44 4.24 2.2 2.6 4.95 4.84 8.18 6.7a33.49 33.49 0 0 0 17.15 4.53c7.16 0 13.2-1.3 18.07-3.88 4.86-2.74 7.32-6.53 7.32-11.42 0-4.44-1.83-8.03-5.48-10.77-3.5-2.74-8.77-4.95-15.78-6.67l-10.97-2.8c-10.37-2.57-18.46-6.48-24.25-11.62-5.8-5.32-8.68-11.28-8.68-17.87 0-10.2 3.5-18.1 10.51-23.69 7.16-5.74 17.76-8.62 31.78-8.62 6.7 0 12.8.93 18.3 2.8a42.14 42.14 0 0 1 14.18 7.97 23.62 23.62 0 0 1 5.26 6.78c2.6 4.78-.9 10.07-6.05 10.8-3.9.57-7.43-1.83-10.03-4.94a17.77 17.77 0 0 0-6.34-4.67c-4.58-2.15-10.14-3.22-16.7-3.22-7.01 0-12.5 1.44-16.46 4.3-3.96 2.74-5.94 6.61-5.94 11.62 0 2.88 1.62 5.6 4.81 8.2 3.37 2.43 8.23 4.43 14.65 6.02l11.42 2.8c7.46 1.72 13.7 4.3 18.74 7.74 5.03 3.3 8.85 7.1 11.42 11.42 2.6 4.3 3.9 8.9 3.9 13.8 0 6.47-1.83 12.07-5.48 16.8-3.65 4.74-8.62 8.39-14.87 10.99-6.25 2.43-13.43 3.68-21.49 3.68l-.02-.03Z" fill="#fff"/>
  <path fill-rule="evenodd" clip-rule="evenodd" d="M414.15 83.4a30.52 30.52 0 0 1-.23 13.54c-.06.17-.08.34-.14.54a30.95 30.95 0 0 1-23.3 22.5c-2.48.57-5.03.76-7.57.68h-10.2a7.96 7.96 0 1 0 0 15.94h9.89a46.63 46.63 0 0 0 32.14-11.62 47.2 47.2 0 0 0 7.24-7.97 47.6 47.6 0 0 0 7.12-15.12 46.08 46.08 0 0 0 .99-19.5l-.25-1.42a46.79 46.79 0 0 0-27.62-34.35 46.33 46.33 0 0 0-23.13-3.54 47.57 47.57 0 0 0-15.04 4.13h-.06a47.06 47.06 0 0 0-27.08 43.48v78.43a7.96 7.96 0 1 0 15.94 0V90.8a30.97 30.97 0 0 1 22.33-30.87 30.67 30.67 0 0 1 16.15-.25 30.96 30.96 0 0 1 22.7 23.66h.2l-.08.06Z" fill="#fff"/>
  <path d="M118.8 24.48c3.14 3.82 1.35 9.64-3.5 11.53-5.8 2.27-9.96-2.8-13.75-6.38-20.3-19.12-53.23-17.05-71.8 3.33a53.18 53.18 0 0 0-13.5 30.36 53.43 53.43 0 0 0 7.16 32.52 51.46 51.46 0 0 0 24.9 21.51 50.35 50.35 0 0 0 32.6 1.84c10.77-3.03 17.64-9.56 24.46-18.6a36.36 36.36 0 0 0 5.96-12.61 5.08 5.08 0 0 0-4.94-6.3H65.96c-3.45 0-6.73-2.1-7.75-5.38a7.92 7.92 0 0 1 7.5-10.43h47.69c12.27 0 15.8 10.52 15.8 15.8 0 13.18-2.03 20.64-13.17 34.24-11.85 14.5-24.57 16.99-30.93 18.91a65.93 65.93 0 0 1-42.66-2.4 67.5 67.5 0 0 1-32.6-28.19A69.7 69.7 0 0 1 .1 68.55c0-8.9 1.7-17.83 5.1-26.2C16.02 15.57 43.42-2.07 72.4.19a67.25 67.25 0 0 1 46.39 24.29Z" fill="#fff"/>
  <path fill-rule="evenodd" clip-rule="evenodd" d="M217.69 53.46c3.42 2.8 3.03 7.91-.31 10.8-3.34 2.88-8.34 2.43-11.99-.06a31.05 31.05 0 0 0-46.28 14.16 31.15 31.15 0 0 0-2.17 12.9v37.17a7.82 7.82 0 0 1-8 7.78c-4.42 0-8-3.37-8-7.78v-37.6a47.13 47.13 0 0 1 24.09-42.04 47 47 0 0 1 52.66 4.64v.03Z" fill="#fff"/>
</svg>
