<svg width="1152" height="288" viewBox="0 0 1152 288" fill="none" xmlns="http://www.w3.org/2000/svg">
<g clip-path="url(#clip0_720_1161)">
<mask id="mask0_720_1161" style="mask-type:luminance" maskUnits="userSpaceOnUse" x="1" y="0" width="1138" height="288">
<path d="M1138.24 0H1.76074V288H1138.24V0Z" fill="white"/>
</mask>
<g mask="url(#mask0_720_1161)">
<path d="M130.449 60L73.1291 94.3682C68.0658 97.4014 64.9609 102.871 64.9609 108.794V175.858C64.9609 181.877 68.1852 187.442 73.4157 190.451L132.121 224.151C137.375 227.184 143.872 227.112 149.102 224.031L208.046 189.042C213.826 185.603 217.361 179.393 217.361 172.658V123.721C217.361 112.782 205.586 105.904 196.057 111.278L174.013 123.697L144.875 140.105" stroke="white" stroke-width="22.5322" stroke-linecap="round"/>
<path d="M787.62 208.207C778.234 208.207 769.866 206.228 762.544 202.299C755.306 198.256 749.624 192.771 745.44 185.816C741.369 178.749 739.333 170.663 739.333 161.588C739.333 152.513 741.255 144.314 745.1 137.359C749.058 130.292 754.486 124.807 761.356 120.877C768.255 116.834 776.142 114.799 785.076 114.799C794.01 114.799 801.445 116.778 807.778 120.708C814.111 124.524 818.917 129.839 822.168 136.681C825.561 143.409 827.257 151.212 827.257 160.061C827.257 162.21 826.522 163.991 825.052 165.433C823.582 166.762 821.716 167.468 819.454 167.468H773.824C770.064 167.468 767.067 164.443 767.067 160.74C767.067 157.036 770.121 154.011 773.824 154.011H818.945L812.019 158.704C811.906 153.106 810.775 148.102 808.626 143.72C806.477 139.225 803.424 135.691 799.466 133.119C795.508 130.518 790.73 129.245 785.076 129.245C778.63 129.245 773.089 130.631 768.481 133.458C763.957 136.257 760.508 140.13 758.134 145.077C755.759 149.884 754.571 155.396 754.571 161.56C754.571 167.723 755.985 173.236 758.812 178.042C761.639 182.848 765.512 186.665 770.516 189.492C775.464 192.291 781.175 193.704 787.62 193.704C791.126 193.704 794.688 193.082 798.279 191.866C802.011 190.538 804.979 189.011 807.241 187.315C808.937 186.099 810.746 185.477 812.669 185.477C814.704 185.364 816.457 185.929 817.927 187.145C819.85 188.813 820.839 190.679 820.952 192.686C821.065 194.722 820.161 196.446 818.238 197.888C814.393 200.913 809.616 203.373 803.848 205.295C798.194 207.19 792.766 208.151 787.592 208.151L787.62 208.207Z" fill="white"/>
<path d="M961.97 207.247C954.308 207.247 947.467 205.607 941.445 202.327C935.536 198.935 930.9 194.27 927.507 188.39C924.228 182.368 922.588 175.526 922.588 167.865C922.588 165.348 923.436 163.313 925.076 161.786C926.716 160.147 928.751 159.327 931.154 159.327C933.557 159.327 935.706 160.147 937.232 161.786C938.872 163.313 939.72 165.348 939.72 167.865C939.72 172.558 940.625 176.714 942.491 180.332C944.47 183.951 947.071 186.778 950.379 188.87C953.771 190.849 957.644 191.81 962.055 191.81C966.465 191.81 970.31 190.849 973.731 188.87C977.123 186.778 979.753 183.951 981.618 180.332C983.597 176.714 984.559 172.558 984.559 167.865V103.887C984.559 101.37 985.35 99.3349 986.877 97.8082C988.517 96.1685 990.552 95.3486 992.955 95.3486C995.358 95.3486 997.563 96.1685 999.203 97.8082C1000.84 99.3349 1001.66 101.37 1001.66 103.887V167.865C1001.66 175.526 999.967 182.368 996.574 188.39C993.181 194.298 988.517 198.935 982.636 202.327C976.727 205.607 969.886 207.247 962.111 207.247H961.998H961.97Z" fill="white"/>
<path fill-rule="evenodd" clip-rule="evenodd" d="M545.194 155.595C545.081 156.076 544.996 156.556 544.912 157.037C544.431 160.034 544.431 163.087 544.827 166.084C544.968 167.102 545.166 168.091 545.42 169.081C545.42 169.25 545.505 169.42 545.562 169.618C545.816 170.551 546.099 171.455 546.41 172.36C548.163 177.279 551.16 181.633 555.061 185.054C558.962 188.503 563.684 190.878 568.773 192.009C571.26 192.546 573.777 192.772 576.321 192.687H586.499C590.881 192.687 594.443 196.249 594.443 200.631C594.443 205.013 590.881 208.576 586.499 208.576H576.632C572.872 208.689 569.112 208.321 565.38 207.501C557.662 205.833 550.538 202.215 544.601 197.013C541.887 194.638 539.484 191.98 537.42 189.068C534.197 184.488 531.765 179.428 530.324 174C529.362 170.353 528.797 166.621 528.74 162.861C528.684 160.118 528.882 157.32 529.334 154.577C529.419 154.097 529.504 153.644 529.589 153.164C530.974 145.898 534.084 139.056 538.635 133.176C543.498 126.956 549.831 122.065 557.097 118.955C564.362 115.846 572.278 114.63 580.138 115.422C585.34 115.959 590.428 117.344 595.121 119.521H595.178C600.408 121.98 605.186 125.401 609.229 129.614C614.94 135.607 618.954 142.986 620.877 151.015C621.81 154.888 622.234 158.875 622.149 162.833C622.149 163.059 622.149 163.285 622.149 163.483V200.575C622.149 204.957 618.587 208.519 614.205 208.519C609.823 208.519 606.26 204.957 606.26 200.575V164.076C606.26 163.681 606.26 163.341 606.26 162.946C606.373 160.203 606.091 157.404 605.441 154.69C604.168 149.375 601.539 144.513 597.751 140.555C593.962 136.625 589.241 133.741 584.011 132.243C578.781 130.716 573.211 130.632 567.953 131.989C562.694 133.346 557.832 136.031 553.93 139.876C550.057 143.721 547.23 148.471 545.816 153.729C545.647 154.323 545.505 154.945 545.364 155.539H545.194V155.595Z" fill="white"/>
<path d="M857.083 203.995C862.398 205.833 868.618 206.766 875.714 206.766C882.81 206.766 888.634 205.805 893.949 203.826C899.264 201.734 903.505 198.794 906.643 194.977C909.809 191.132 911.364 186.58 911.364 181.35C911.364 177.392 910.233 173.66 908.028 170.155C905.795 166.677 902.544 163.596 898.246 160.938C893.949 158.168 888.634 156.104 882.33 154.719L872.717 152.513C867.374 151.269 863.331 149.686 860.589 147.82C857.96 145.813 856.744 143.778 856.744 141.714C856.744 137.897 858.327 134.957 861.522 132.893C864.745 130.688 869.24 129.557 875.092 129.557C880.549 129.557 885.157 130.405 888.945 132.073C891.094 133.034 892.705 134.08 894.091 135.635C896.324 138.152 899.462 140.215 902.968 139.735C905.258 139.424 907.208 138.152 908.311 136.427C909.414 134.702 909.611 132.497 908.424 130.433C907.124 128.2 905.569 126.249 903.872 124.921C900.48 122.15 896.465 120.001 891.801 118.503C887.136 117.005 881.962 116.27 876.251 116.27C864.406 116.27 855.359 118.56 849.224 123.196C843.202 127.748 840.177 134.165 840.177 142.364C840.177 147.764 842.693 152.626 847.641 156.924C852.588 161.08 859.458 164.189 868.222 166.253L877.439 168.487C883.319 169.844 887.673 171.597 890.528 173.689C893.497 175.781 894.939 178.466 894.939 181.831C894.939 185.478 893.016 188.361 889.058 190.453C885.044 192.461 880.068 193.479 874.074 193.479C868.901 193.479 864.151 192.291 859.882 189.945C857.225 188.474 854.963 186.75 853.154 184.743C851.033 182.424 848.008 180.756 844.785 181.209C842.411 181.548 840.403 182.962 839.272 184.799C838.142 186.665 837.915 188.983 839.159 191.104C840.375 193.224 841.789 194.807 843.57 196.39C847.217 199.529 851.684 202.045 856.999 203.995H857.083Z" fill="white" stroke="white" stroke-width="0.961225"/>
<path d="M1057.07 208.208C1048.68 208.208 1041.38 207.049 1035.11 204.759C1028.86 202.327 1023.6 199.161 1019.33 195.288C1017.24 193.337 1015.63 191.386 1014.22 188.785C1011.53 183.866 1015.2 178.042 1020.49 177.222C1024.08 176.685 1027.5 178.636 1029.93 181.463C1032.14 184.064 1034.88 186.298 1038.1 188.163C1043.31 191.188 1049.02 192.687 1055.27 192.687C1062.42 192.687 1068.47 191.386 1073.33 188.814C1078.19 186.071 1080.65 182.283 1080.65 177.392C1080.65 172.953 1078.82 169.363 1075.17 166.621C1071.66 163.878 1066.4 161.673 1059.39 159.949L1048.42 157.15C1038.05 154.577 1029.96 150.676 1024.17 145.53C1018.37 140.215 1015.49 134.25 1015.49 127.663C1015.49 117.457 1018.99 109.569 1026 103.971C1033.16 98.2323 1043.76 95.3486 1057.78 95.3486C1064.48 95.3486 1070.59 96.2816 1076.07 98.1475C1081.56 100.013 1086.28 102.671 1090.27 106.12C1092.19 107.731 1094.03 110.135 1095.52 112.905C1098.12 117.683 1094.62 122.97 1089.47 123.705C1085.57 124.27 1082.04 121.867 1079.44 118.757C1077.71 116.722 1075.73 115.336 1073.1 114.093C1068.52 111.944 1062.96 110.87 1056.4 110.87C1049.39 110.87 1043.9 112.311 1039.94 115.167C1035.98 117.909 1034.01 121.782 1034.01 126.786C1034.01 129.67 1035.62 132.384 1038.81 134.985C1042.18 137.416 1047.04 139.424 1053.46 141.007L1064.88 143.806C1072.34 145.53 1078.59 148.103 1083.62 151.552C1088.65 154.86 1092.47 158.648 1095.04 162.974C1097.64 167.271 1098.94 171.879 1098.94 176.77C1098.94 183.244 1097.11 188.842 1093.46 193.563C1089.81 198.313 1084.84 201.96 1078.59 204.561C1072.34 206.992 1065.16 208.236 1057.1 208.236L1057.07 208.208Z" fill="white"/>
<path fill-rule="evenodd" clip-rule="evenodd" d="M711.147 155.397C711.26 155.877 711.345 156.358 711.429 156.838C711.91 159.863 711.938 162.917 711.514 165.913C711.373 166.931 711.175 167.921 710.921 168.938C710.864 169.108 710.836 169.278 710.779 169.476C710.525 170.409 710.242 171.342 709.931 172.246C708.15 177.165 705.182 181.547 701.252 184.997C697.322 188.446 692.601 190.849 687.484 191.98C684.996 192.545 682.451 192.743 679.907 192.658H669.701C665.291 192.658 661.729 196.22 661.729 200.631C661.729 205.041 665.291 208.603 669.701 208.603H679.596C683.384 208.716 687.144 208.349 690.876 207.529C698.623 205.833 705.804 202.214 711.741 196.984C714.455 194.609 716.886 191.923 718.978 189.011C722.201 184.431 724.66 179.314 726.102 173.886C727.092 170.239 727.629 166.479 727.686 162.719C727.742 159.948 727.544 157.149 727.092 154.379C727.007 153.898 726.922 153.446 726.837 152.965C725.452 145.671 722.314 138.801 717.762 132.893C712.9 126.645 706.539 121.754 699.216 118.616C691.922 115.477 683.978 114.262 676.09 115.082C670.86 115.619 665.771 117.032 661.05 119.209H660.993C655.735 121.669 650.957 125.09 646.886 129.33C641.147 135.324 637.132 142.759 635.182 150.817C634.249 154.718 633.825 158.704 633.91 162.691C633.91 162.917 633.91 163.143 633.91 163.341V241.115C633.91 245.525 637.472 249.088 641.882 249.088C646.292 249.088 649.855 245.525 649.855 241.115V162.804C649.741 160.033 650.024 157.234 650.674 154.492C651.947 149.149 654.604 144.286 658.393 140.3C662.181 136.342 666.93 133.458 672.189 131.931C677.447 130.405 683.045 130.32 688.332 131.677C693.647 133.034 698.481 135.748 702.411 139.593C706.312 143.438 709.14 148.216 710.581 153.502C710.751 154.124 710.892 154.718 711.034 155.34H711.232L711.147 155.397Z" fill="white"/>
<path d="M415.796 96.4799C418.935 100.296 417.154 106.12 412.291 108.015C406.495 110.276 402.339 105.216 398.551 101.625C378.252 82.5138 345.316 84.5776 326.742 104.961C319.137 113.33 314.416 123.988 313.256 135.325C312.126 146.69 314.642 158.111 320.409 167.837C326.176 177.562 334.941 185.167 345.316 189.351C355.663 193.564 367.113 194.214 377.913 191.189C388.684 188.164 395.554 181.633 402.368 172.586C405.28 168.685 407.145 164.444 408.333 159.977C409.153 156.783 406.693 153.673 403.385 153.673H362.957C359.508 153.673 356.229 151.581 355.211 148.301C353.515 142.845 357.529 137.869 362.703 137.869H410.397C422.666 137.869 426.2 148.386 426.2 153.673C426.2 166.847 424.165 174.311 413.026 187.909C401.18 202.413 388.458 204.9 382.097 206.823C367.99 210.781 353.006 209.933 339.436 204.42C325.865 198.907 314.416 189.012 306.839 176.233C300.449 165.462 297.085 153.107 297.113 140.555C297.113 131.649 298.81 122.716 302.202 114.347C313.03 87.5744 340.425 69.9331 369.403 72.1948C387.412 73.5801 404.318 82.5421 415.796 96.4799Z" fill="white"/>
<path fill-rule="evenodd" clip-rule="evenodd" d="M514.69 125.459C518.111 128.258 517.715 133.375 514.379 136.258C511.043 139.142 506.039 138.69 502.392 136.202C498.773 133.742 494.646 132.074 490.264 131.283C483.224 130.067 476.015 131.283 469.795 134.76C463.576 138.237 458.741 143.75 456.112 150.366C454.472 154.493 453.737 158.904 453.935 163.257V200.434C453.935 204.845 450.345 208.209 445.934 208.209C441.524 208.209 437.933 204.845 437.933 200.434V163.512C437.933 163.286 437.933 163.06 437.933 162.833C437.792 156.585 438.895 150.337 441.269 144.457C445.256 134.421 452.606 126.081 462.021 120.794C471.435 115.507 482.404 113.67 493.034 115.507C501.035 116.892 508.47 120.342 514.69 125.43V125.459Z" fill="white"/>
</g>
</g>
<defs>
<clipPath id="clip0_720_1161">
<rect width="1152" height="288" fill="white"/>
</clipPath>
</defs>
</svg>
